

  <svg xmlns="http://www.w3.org/2000/svg" viewBox="0 0 576 512" width="40" height="40" fill="#302e2e" x="0" y="0" opacity="100%">
    <path d="M288 64C39.52 64 0 182.1 0 273.5C0 379.5 78.8 448 176 448c27.33 0 51.21-6.516 66.11-36.79l19.93-40.5C268.3 358.6 278.1 352.4 288 352.1c9.9 .3711 19.7 6.501 25.97 18.63l19.93 40.5C348.8 441.5 372.7 448 400 448c97.2 0 176-68.51 176-174.5C576 182.1 536.5 64 288 64zM160 320c-35.35 0-64-28.65-64-64s28.65-64 64-64c35.35 0 64 28.65 64 64S195.3 320 160 320zM416 320c-35.35 0-64-28.65-64-64s28.65-64 64-64c35.35 0 64 28.65 64 64S451.3 320 416 320z"></path>

  <defs>
    <filter id="filter_dshadow_10_0_2_0000001a" color-interpolation-filters="sRGB" filterUnits="userSpaceOnUse">
      <feFlood flood-opacity="0" result="bg-fix"></feFlood>
      <feColorMatrix in="SourceAlpha" type="matrix" values="0 0 0 0 0 0 0 0 0 0 0 0 0 0 0 0 0 0 127 0" result="alpha"></feColorMatrix>
      <feOffset dx="0" dy="2"></feOffset>
      <feGaussianBlur stdDeviation="5"></feGaussianBlur>
      <feComposite in2="alpha" operator="out"></feComposite>
      <feColorMatrix type="matrix" values="0 0 0 0 0 0 0 0 0 0 0 0 0 0 0 0 0 0 0.1 0"></feColorMatrix>
      <feBlend mode="normal" in2="bg-fix" result="bg-fix-filter_dshadow_10_0_2_0000001a"></feBlend>
      <feBlend in="SourceGraphic" in2="bg-fix-filter_dshadow_10_0_2_0000001a" result="shape"></feBlend>
    </filter>
  </defs>
</svg>