

  <svg xmlns="http://www.w3.org/2000/svg" height="450" width="450" viewBox="0 0 24 24" fill="rgba(255,255,255,0.41)" x="0" y="0" opacity="100%">
    <path fill="none" d="M0 0h24v24H0z"></path>
    <path d="M19.94 9.06C19.5 5.73 16.57 3 13 3 9.47 3 6.57 5.61 6.08 9l-1.93 3.48c-.41.66.07 1.52.85 1.52h1v2c0 1.1.9 2 2 2h1v3h7v-4.68a7.016 7.016 0 0 0 3.94-7.26zM12.5 14c-.41 0-.74-.33-.74-.74s.33-.73.74-.73.73.32.73.73-.31.74-.73.74zm1.76-4.32c-.44.65-.86.85-1.09 1.27-.09.17-.13.28-.13.82h-1.06c0-.29-.04-.75.18-1.16.28-.51.83-.81 1.14-1.26.33-.47.15-1.36-.8-1.36-.62 0-.92.47-1.05.86l-.96-.4c.27-.78.97-1.45 2.01-1.45.86 0 1.45.39 1.75.88.26.43.41 1.22.01 1.8z"></path>

  <defs>
    <filter id="filter_dshadow_10_0_2_0000001a" color-interpolation-filters="sRGB" filterUnits="userSpaceOnUse">
      <feFlood flood-opacity="0" result="bg-fix"></feFlood>
      <feColorMatrix in="SourceAlpha" type="matrix" values="0 0 0 0 0 0 0 0 0 0 0 0 0 0 0 0 0 0 127 0" result="alpha"></feColorMatrix>
      <feOffset dx="0" dy="2"></feOffset>
      <feGaussianBlur stdDeviation="5"></feGaussianBlur>
      <feComposite in2="alpha" operator="out"></feComposite>
      <feColorMatrix type="matrix" values="0 0 0 0 0 0 0 0 0 0 0 0 0 0 0 0 0 0 0.1 0"></feColorMatrix>
      <feBlend mode="normal" in2="bg-fix" result="bg-fix-filter_dshadow_10_0_2_0000001a"></feBlend>
      <feBlend in="SourceGraphic" in2="bg-fix-filter_dshadow_10_0_2_0000001a" result="shape"></feBlend>
    </filter>
  </defs>
</svg>